<?xml version="1.0" encoding="UTF-8"?>
<!-- width="156" height="40" viewBox="0 0 156 40" fill="none" -->
<svg version="1.1" viewBox="0 0 2048 564" width="800" height="180" xmlns="http://www.w3.org/2000/svg">
<path transform="translate(1092,15)" d="m0 0h26l20 3 16 6 11 7 10 9 7 10 5 11 4 16 2 17v16l-3 27-6 28-6 21-12 36-12 32-2 5v8l4 4h19l10-1h11l1-13 7-34 5-19 7-19 8-16 7-12 8-9 7-5 6-2h12l9 5 6 7 4 8 1 4v28l-5 24-8 28-10 29-11 27-13 29-14 29-4 10-1 5v14l5 15 8 16 8 10 1 3 4 2 9 7 12 5 10 2h18l20-4 18-6 19-9 17-10 16-11 16-12 16-13 13-12 6-2h5l10-9 12-6 8-1 6 3 1 2v8l-4 4-8 2-9 6-8 9-6 10-4 12v11l4 8 8 6 9 4 9-1 8-5 5-6 1-5-5-5-6-9-3-7v-11l4-10 8-10 6-5 7-2 7 3 5 6 2 5 1 7v26l5 5 11 2 11 1h21l20-2 23-5 19-7 16-8 16-9 17-13 11-10 4-3 7-1 6-4h6l5 5 1 3-11 29-5 21v15l3 8 4 3 6 1 8-4 6-5 9-12 10-19 8-19 5-4 7 1 4 4v8l-4 15-2 16 1 11 3 6 1 1h8l11-7 8-7 8-11 1-9-5-11-1-4v-10l4-8 6-7 10-7 12-6 6-1 6 3 3 4 1 8-4 16-2 6v9l5 8 10 4 20 4 9 1h39l19-3 19-5 16-6 23-11 15-10 15-11 2-1h6l4 4v6l-7 8-21 14-14 8-14 6-22 8-19 5-24 4-23 1-26-2-17-3-21-6-3-1h-9l-8 9-9 11-12 10-10 5-7 2h-8l-10-4-10-6-3-1h-7l-10 6-10 5-4 1h-9l-10-4-7-7-4-8-2-6v-23l4-21-18 12-18 10-20 9-21 7-23 5-18 2h-36l-25-4-2 4-6 8-9 8-9 4-5 1h-11l-12-3-10-6-7-7-6-10-2-6v-15l1-3-7 3-17 13-18 12-18 10-21 10-20 7-13 3-8 1h-28l-16-4-16-8-10-8-9-11-8-13-7-17-6-22-4-27-1-13v-53l-3 1-45 3-7 2-6 10-13 26-10 21-24 44-14 24-8 14-17 28-5 5-7-1-4-5 1-6 6-11 16-27 13-23 13-24 15-28 12-23 5-12-1-5-5-5-15 1-21 2-24 4-5 1h-8l-4-5v-6l4-4 27-6 25-4 36-3 6-1 2-5 12-28 15-40 9-29 6-24 4-24 1-7v-33l-4-16-5-12-8-10-10-7-13-5-20-3h-26l-19 3-21 6-19 9-19 12-14 11-14 13-7 8-10 12-13 19-9 15-8 17-8 22-5 21-2 13v33l4 16 8 16 6 8 20 15 1 1v6l-5 5-9-1-12-8-11-11-9-14-5-12-4-15-1-6-1-19 1-19 5-25 5-17 10-24 10-19 12-18 10-13 12-14 15-15 14-11 13-9 16-9 18-8 26-7zm163 142-6 5-8 13-10 21-9 27-9 40v6l6 7-1 6-4 3-4 2-1 10v28l1 10 4 5 4-1 5-8 8-18 10-27 13-40 9-36 4-23v-21l-5-8zm558 219-6 5-1 2v6l3 2 4-5 3-6v-4zm-325 10-3 3-1 8 3 5 3-2 1-13z" fill="#383539"/>
<path transform="translate(320,86)" d="m0 0h33l22 2 20 4 14 5 12 7 10 9 6 8 4 8 3 13v19l-4 17-8 20-8 15-8 12-11 14-25 25-17 13-23 16-25 14-29 15-28 12-31 11-35 10-6 4-4 7-10 39-8 24-8 17-8 11-9 8-7 3h-6l-5-5 1-7 11-8 6-7 8-16 9-27 6-24-1-7-5-4-28-3-10-3-7-6-3-8 1-8 6-11 9-10 5-1 5 3 3 5-2 6-7 9-2 5 5 2 7 1h16l10-2 5-4 3-10 8-40 11-48 7-25 6-17 8-17 7-9 8-8 8-4h8l4 4 1 6-4 5-9 5-6 7-8 15-10 30-9 36-10 50-1 12 3 5h7l20-6 29-10 23-10 24-11 24-13 20-13 14-10 11-9 10-9 17-17 11-15 12-21 8-20 2-9 1-16-2-11-6-10-8-8-16-8-12-4-17-3-9-1h-39l-29 3-28 5-30 7-36 12-33 13-18 8-21 10-24 14-27 18-13 11-10 9-9 10-10 15-5 11-4 15v18l1 5v8l-4 4-4 1-6-3-3-7-2-14 1-15 4-15 8-17 10-14 11-12 4-5 8-7 13-11 18-13 20-12 23-12 22-11 28-11 36-12 42-11 25-5 32-4z" fill="#383539"/>
<path transform="translate(364,330)" d="m0 0h14l10 5 6 8 2 7v10l-3 7-4 6-7 7-19 10-22 7-13 2-19 1-3 3 1 11 3 6 5 5 9 6 15 6 17 5 19 3h33l24-3 23-5 27-9 28-12 24-12 20-12 21-14 16-11 6-5 7 1 3 4v8l-6 29v6l2 2 8-6 13-11 18-12 12-5 7-2h16l10 5 9 9 13 19 9 10 9 8 12 7 20 4h17l20-4 16-6 23-12 16-11 14-11 20-18 6-4 5 1 4 4 1 5-4 6-11 11-11 9-17 13-18 11-17 9-25 9-15 3-8 1h-19l-16-3-12-5-12-7-11-9-11-13-11-16-5-5-5-3h-10l-13 5-15 10-10 8-10 9-11 11-7 8-10 11-3 2-7-1-3-2-1-6 11-51 1-3-12 6-16 10-16 9-16 8-28 13-20 7-25 7-23 5-16 2h-39l-20-3-19-5-13-5-13-7-10-8-6-8-4-12v-12l3-12 6-12 7-9 11-12 14-11 14-8 12-5zm4 16-14 3-15 8-11 9-7 8-5 8 1 3 7 1 16-4 20-8 10-6 7-6 2-3v-7l-2-4z" fill="#383539"/>
</svg>
